<svg xmlns="http://www.w3.org/2000/svg" viewBox="0 0 128 128" width="128" height="128" id="sun">
  <defs>
    <style>
      :root {
        --sun-ray: #FFE071;
        --sun-core: #FFC23B;
        --sun-shade: #FFB02A; 
      }
    </style>
    <clipPath id="coreClip">
      <circle cx="64" cy="64" r="36"/>
    </clipPath>
    <g id="ray">
      <rect x="60" y="6" width="8" height="18" rx="4" ry="4" fill="var(--sun-ray)" opacity="0.7"/>
    </g>
    <filter id="sun-glow">
      <feGaussianBlur stdDeviation="6" result="coloredBlur"/>
      <feMerge>
        <feMergeNode in="coloredBlur"/>
        <feMergeNode in="SourceGraphic"/>
      </feMerge>
    </filter>
  </defs>
  <circle 
    cx="64" 
    cy="64" 
    r="37" 
    fill="var(--sun-ray)" 
    filter="url(#sun-glow)"
    opacity="0.45"
  />
  <g opacity="0.98">
    <use href="#ray" transform="rotate(0 64 64)"/>
    <use href="#ray" transform="rotate(22.5 64 64)"/>
    <use href="#ray" transform="rotate(45 64 64)"/>
    <use href="#ray" transform="rotate(67.5 64 64)"/>
    <use href="#ray" transform="rotate(90 64 64)"/>
    <use href="#ray" transform="rotate(112.5 64 64)"/>
    <use href="#ray" transform="rotate(135 64 64)"/>
    <use href="#ray" transform="rotate(157.5 64 64)"/>
    <use href="#ray" transform="rotate(180 64 64)"/>
    <use href="#ray" transform="rotate(202.5 64 64)"/>
    <use href="#ray" transform="rotate(225 64 64)"/>
    <use href="#ray" transform="rotate(247.5 64 64)"/>
    <use href="#ray" transform="rotate(270 64 64)"/>
    <use href="#ray" transform="rotate(292.5 64 64)"/>
    <use href="#ray" transform="rotate(315 64 64)"/>
    <use href="#ray" transform="rotate(337.5 64 64)"/>
  </g>
  <circle cx="64" cy="64" r="36" fill="var(--sun-core)"/>
  <g clip-path="url(#coreClip)">
    <circle cx="78" cy="60" r="34" fill="var(--sun-shade)" opacity="0.95"/>
  </g>
</svg>
